<svg width="45" height="45" viewBox="0 0 45 45" fill="none" xmlns="http://www.w3.org/2000/svg">
<path d="M22.5002 0C16.5327 0 10.8098 2.37053 6.59025 6.59023C2.37054 10.8096 0 16.5328 0 22.5001C0.124931 37.2126 11.3127 45 22.5 45C33.6873 45 44.8875 37.2001 45 22.5001C45 16.5326 42.6295 10.8098 38.4098 6.59023C34.1904 2.37053 28.4672 0 22.4998 0L22.5002 0ZM11.1256 38.9249C12.0365 35.5718 14.3807 32.7917 17.5316 31.327C20.6822 29.8624 24.319 29.8624 27.4694 31.327C30.6202 32.7917 32.9644 35.5718 33.8754 38.9249C30.5387 41.2518 26.5685 42.4991 22.5008 42.4991C18.4331 42.4991 14.4627 41.2518 11.1262 38.9249H11.1256ZM15.5007 20.7377C15.5007 18.8813 16.238 17.1006 17.5507 15.7879C18.8634 14.4752 20.6442 13.7378 22.5006 13.7378C24.357 13.7378 26.1377 14.4751 27.4504 15.7879C28.7631 17.1006 29.5005 18.8813 29.5005 20.7377C29.5005 22.5943 28.7631 24.3748 27.4504 25.6875C26.1377 27.0002 24.357 27.7379 22.5006 27.7379C20.6442 27.7379 18.8634 27.0002 17.5507 25.6875C16.238 24.3748 15.5007 22.5944 15.5007 20.7377ZM35.9628 37.2502C35.2634 35.3226 34.1601 33.5667 32.7263 32.1008C31.2927 30.6346 29.5619 29.4923 27.6502 28.7503C29.964 27.2578 31.5162 24.8345 31.9051 22.1087C32.2937 19.3825 31.4807 16.6221 29.6761 14.5423C27.8719 12.4621 25.2537 11.2674 22.5002 11.2674C19.7466 11.2674 17.1284 12.4621 15.3242 14.5423C13.5196 16.6221 12.7066 19.3825 13.0952 22.1087C13.4842 24.8345 15.0363 27.2578 17.3501 28.7503C15.4385 29.4924 13.7076 30.6346 12.2741 32.1008C10.8402 33.5667 9.73687 35.3226 9.03753 37.2502C6.0533 34.5338 3.96024 30.978 3.03396 27.0497C2.10801 23.122 2.39142 19.0052 3.8479 15.2421C5.30438 11.4785 7.86512 8.24317 11.1943 5.96248C14.5232 3.68107 18.4645 2.46004 22.5006 2.46004C26.5367 2.46004 30.4776 3.68107 33.8068 5.96248C37.136 8.24357 39.6968 11.4788 41.1532 15.2421C42.6097 19.0057 42.8931 23.122 41.9672 27.0497C41.0409 30.9778 38.9478 34.5336 35.9636 37.2502H35.9628Z" fill="white"/>
</svg>
