<svg width="40" height="45" viewBox="0 0 40 45" fill="none" xmlns="http://www.w3.org/2000/svg">
<path d="M37.4917 8.26463C37.4326 7.62613 36.8953 7.13851 36.2538 7.14112H3.75439C3.10102 7.13942 2.55688 7.64189 2.50671 8.29314L0.00243671 43.4207C-0.0192434 43.7718 0.104459 44.1162 0.34506 44.3729C0.591614 44.6339 0.938493 44.7763 1.29728 44.7632H38.7483C39.0968 44.7674 39.4314 44.6237 39.669 44.3683C39.9067 44.1123 40.0252 43.7684 39.9955 43.4207L37.4917 8.26463ZM2.60248 42.2593L4.91631 9.59882H35.0826L37.4062 42.2593H2.60248Z" fill="white"/>
<path d="M13.1052 9.59773H15.6095V12.6925H15.6099C15.553 13.342 15.0093 13.8403 14.3576 13.8403C13.7059 13.8403 13.1622 13.3421 13.1052 12.6925L13.1052 9.59773Z" fill="white"/>
<path d="M26.8933 6.86514V7.14146H24.3984V6.89405C24.3274 5.37268 23.4746 3.99616 22.1441 3.25484C20.8135 2.5139 19.1944 2.5139 17.8633 3.25484C16.5327 3.99621 15.6801 5.37268 15.6094 6.89405V7.14146H13.1047V6.89405C13.1047 4.43102 14.4187 2.15506 16.5519 0.923596C18.6851 -0.307866 21.313 -0.307866 23.4461 0.923596C25.5793 2.15506 26.8933 4.43102 26.8933 6.89405" fill="white"/>
<path d="M24.3989 9.59773H26.8938V12.6925C26.8938 13.3816 26.3353 13.9402 25.6462 13.9402C24.9575 13.9402 24.3989 13.3816 24.3989 12.6925V9.59773Z" fill="white"/>
<path d="M29.5215 38.7171H10.0005C9.65196 38.7477 9.30678 38.6308 9.04917 38.3944C8.79113 38.1581 8.64404 37.8244 8.64404 37.4745C8.64404 37.1247 8.79113 36.791 9.04917 36.5551C9.30678 36.3187 9.65196 36.2014 10.0005 36.232H29.5215C29.8701 36.2014 30.2153 36.3187 30.4729 36.5551C30.7309 36.791 30.878 37.1247 30.878 37.4745C30.878 37.8244 30.7309 38.1581 30.4729 38.3944C30.2153 38.6308 29.8701 38.7477 29.5215 38.7171Z" fill="white"/>
</svg>
